<svg width="475" height="283" viewBox="0 0 475 283" fill="none" xmlns="http://www.w3.org/2000/svg">
<g filter="url(#filter0_d_2695_737)">
<circle cx="64" cy="79" r="60" fill="#9358EB"/>
<circle cx="64" cy="79" r="59.5" stroke="white"/>
</g>
<g filter="url(#filter1_d_2695_737)">
<circle cx="237" cy="142" r="60" fill="#E14BC3"/>
<circle cx="237" cy="142" r="59.5" stroke="white"/>
</g>
<path d="M202.138 149V135.909H207.303C208.291 135.909 209.135 136.086 209.834 136.44C210.537 136.789 211.072 137.286 211.438 137.929C211.809 138.568 211.994 139.32 211.994 140.185C211.994 141.055 211.807 141.803 211.432 142.429C211.057 143.051 210.513 143.528 209.802 143.861C209.094 144.193 208.238 144.359 207.232 144.359H203.774V142.135H206.785C207.313 142.135 207.752 142.062 208.102 141.918C208.451 141.773 208.711 141.555 208.881 141.266C209.056 140.976 209.143 140.616 209.143 140.185C209.143 139.751 209.056 139.384 208.881 139.086C208.711 138.788 208.449 138.562 208.095 138.408C207.746 138.251 207.305 138.172 206.772 138.172H204.906V149H202.138ZM209.207 143.043L212.461 149H209.406L206.222 143.043H209.207ZM218.177 149.192C217.184 149.192 216.325 148.981 215.601 148.559C214.881 148.133 214.325 147.54 213.933 146.782C213.541 146.019 213.345 145.135 213.345 144.129C213.345 143.115 213.541 142.229 213.933 141.47C214.325 140.707 214.881 140.115 215.601 139.693C216.325 139.267 217.184 139.054 218.177 139.054C219.17 139.054 220.026 139.267 220.747 139.693C221.471 140.115 222.029 140.707 222.421 141.47C222.813 142.229 223.009 143.115 223.009 144.129C223.009 145.135 222.813 146.019 222.421 146.782C222.029 147.54 221.471 148.133 220.747 148.559C220.026 148.981 219.17 149.192 218.177 149.192ZM218.19 147.082C218.642 147.082 219.019 146.955 219.321 146.699C219.624 146.439 219.852 146.085 220.005 145.638C220.163 145.19 220.242 144.681 220.242 144.11C220.242 143.539 220.163 143.03 220.005 142.582C219.852 142.135 219.624 141.781 219.321 141.521C219.019 141.261 218.642 141.131 218.19 141.131C217.734 141.131 217.35 141.261 217.039 141.521C216.732 141.781 216.5 142.135 216.343 142.582C216.189 143.03 216.112 143.539 216.112 144.11C216.112 144.681 216.189 145.19 216.343 145.638C216.5 146.085 216.732 146.439 217.039 146.699C217.35 146.955 217.734 147.082 218.19 147.082ZM231.076 144.82V139.182H233.799V149H231.185V147.217H231.083C230.861 147.792 230.492 148.254 229.977 148.604C229.465 148.953 228.841 149.128 228.104 149.128C227.448 149.128 226.87 148.979 226.372 148.68C225.873 148.382 225.483 147.958 225.202 147.408C224.925 146.859 224.784 146.2 224.78 145.433V139.182H227.503V144.947C227.507 145.527 227.663 145.985 227.97 146.322C228.276 146.658 228.688 146.827 229.203 146.827C229.531 146.827 229.838 146.752 230.124 146.603C230.409 146.45 230.639 146.224 230.814 145.925C230.993 145.627 231.08 145.259 231.076 144.82ZM238.7 143.324V149H235.977V139.182H238.572V140.914H238.688C238.905 140.343 239.269 139.891 239.781 139.559C240.292 139.222 240.912 139.054 241.641 139.054C242.322 139.054 242.917 139.203 243.424 139.501C243.931 139.8 244.325 140.226 244.607 140.78C244.888 141.33 245.028 141.986 245.028 142.749V149H242.305V143.234C242.31 142.634 242.156 142.165 241.845 141.828C241.534 141.487 241.106 141.317 240.56 141.317C240.194 141.317 239.87 141.396 239.589 141.553C239.312 141.711 239.094 141.941 238.937 142.244C238.783 142.542 238.705 142.902 238.7 143.324ZM250.792 149.16C250.047 149.16 249.371 148.968 248.766 148.585C248.165 148.197 247.688 147.628 247.334 146.878C246.985 146.124 246.81 145.199 246.81 144.104C246.81 142.979 246.991 142.043 247.354 141.298C247.716 140.548 248.197 139.987 248.798 139.616C249.403 139.241 250.066 139.054 250.786 139.054C251.336 139.054 251.794 139.148 252.16 139.335C252.531 139.518 252.829 139.749 253.055 140.026C253.285 140.298 253.46 140.567 253.579 140.831H253.662V135.909H256.379V149H253.694V147.428H253.579C253.452 147.7 253.27 147.971 253.036 148.239C252.806 148.504 252.506 148.723 252.135 148.898C251.768 149.072 251.321 149.16 250.792 149.16ZM251.655 146.993C252.094 146.993 252.465 146.874 252.768 146.635C253.074 146.392 253.309 146.053 253.471 145.619C253.637 145.184 253.72 144.675 253.72 144.091C253.72 143.507 253.639 143 253.477 142.57C253.315 142.139 253.081 141.807 252.774 141.572C252.467 141.338 252.094 141.221 251.655 141.221C251.208 141.221 250.831 141.342 250.524 141.585C250.217 141.828 249.985 142.165 249.827 142.595C249.67 143.026 249.591 143.524 249.591 144.091C249.591 144.662 249.67 145.167 249.827 145.606C249.989 146.04 250.221 146.381 250.524 146.629C250.831 146.871 251.208 146.993 251.655 146.993ZM262.758 149V147.006L267.418 142.691C267.814 142.308 268.147 141.962 268.415 141.656C268.688 141.349 268.895 141.048 269.035 140.754C269.176 140.456 269.246 140.134 269.246 139.789C269.246 139.406 269.159 139.075 268.984 138.798C268.809 138.517 268.571 138.302 268.268 138.153C267.966 137.999 267.623 137.923 267.239 137.923C266.839 137.923 266.489 138.004 266.191 138.165C265.893 138.327 265.662 138.56 265.501 138.862C265.339 139.165 265.258 139.525 265.258 139.942H262.631C262.631 139.086 262.824 138.342 263.212 137.712C263.6 137.081 264.143 136.593 264.842 136.248C265.541 135.903 266.346 135.73 267.258 135.73C268.196 135.73 269.012 135.896 269.706 136.229C270.405 136.557 270.949 137.013 271.336 137.597C271.724 138.18 271.918 138.849 271.918 139.604C271.918 140.098 271.82 140.586 271.624 141.067C271.432 141.549 271.089 142.084 270.595 142.672C270.101 143.256 269.404 143.957 268.505 144.775L266.594 146.648V146.737H272.091V149H262.758Z" fill="white"/>
<g filter="url(#filter2_d_2695_737)">
<circle cx="411" cy="192" r="60" fill="#AD2DCD"/>
<circle cx="411" cy="192" r="59.5" stroke="white"/>
</g>
<path d="M376.138 199V185.909H381.303C382.291 185.909 383.135 186.086 383.834 186.44C384.537 186.789 385.072 187.286 385.438 187.929C385.809 188.568 385.994 189.32 385.994 190.185C385.994 191.055 385.807 191.803 385.432 192.429C385.057 193.051 384.513 193.528 383.802 193.861C383.094 194.193 382.238 194.359 381.232 194.359H377.774V192.135H380.785C381.313 192.135 381.752 192.062 382.102 191.918C382.451 191.773 382.711 191.555 382.881 191.266C383.056 190.976 383.143 190.616 383.143 190.185C383.143 189.751 383.056 189.384 382.881 189.086C382.711 188.788 382.449 188.562 382.095 188.408C381.746 188.251 381.305 188.172 380.772 188.172H378.906V199H376.138ZM383.207 193.043L386.461 199H383.406L380.222 193.043H383.207ZM392.177 199.192C391.184 199.192 390.325 198.981 389.601 198.559C388.881 198.133 388.325 197.54 387.933 196.782C387.541 196.019 387.345 195.135 387.345 194.129C387.345 193.115 387.541 192.229 387.933 191.47C388.325 190.707 388.881 190.115 389.601 189.693C390.325 189.267 391.184 189.054 392.177 189.054C393.17 189.054 394.026 189.267 394.747 189.693C395.471 190.115 396.029 190.707 396.421 191.47C396.813 192.229 397.009 193.115 397.009 194.129C397.009 195.135 396.813 196.019 396.421 196.782C396.029 197.54 395.471 198.133 394.747 198.559C394.026 198.981 393.17 199.192 392.177 199.192ZM392.19 197.082C392.642 197.082 393.019 196.955 393.321 196.699C393.624 196.439 393.852 196.085 394.005 195.638C394.163 195.19 394.242 194.681 394.242 194.11C394.242 193.539 394.163 193.03 394.005 192.582C393.852 192.135 393.624 191.781 393.321 191.521C393.019 191.261 392.642 191.131 392.19 191.131C391.734 191.131 391.35 191.261 391.039 191.521C390.732 191.781 390.5 192.135 390.343 192.582C390.189 193.03 390.112 193.539 390.112 194.11C390.112 194.681 390.189 195.19 390.343 195.638C390.5 196.085 390.732 196.439 391.039 196.699C391.35 196.955 391.734 197.082 392.19 197.082ZM405.076 194.82V189.182H407.799V199H405.185V197.217H405.083C404.861 197.792 404.492 198.254 403.977 198.604C403.465 198.953 402.841 199.128 402.104 199.128C401.448 199.128 400.87 198.979 400.372 198.68C399.873 198.382 399.483 197.958 399.202 197.408C398.925 196.859 398.784 196.2 398.78 195.433V189.182H401.503V194.947C401.507 195.527 401.663 195.985 401.97 196.322C402.276 196.658 402.688 196.827 403.203 196.827C403.531 196.827 403.838 196.752 404.124 196.603C404.409 196.45 404.639 196.224 404.814 195.925C404.993 195.627 405.08 195.259 405.076 194.82ZM412.7 193.324V199H409.977V189.182H412.572V190.914H412.688C412.905 190.343 413.269 189.891 413.781 189.559C414.292 189.222 414.912 189.054 415.641 189.054C416.322 189.054 416.917 189.203 417.424 189.501C417.931 189.8 418.325 190.226 418.607 190.78C418.888 191.33 419.028 191.986 419.028 192.749V199H416.305V193.234C416.31 192.634 416.156 192.165 415.845 191.828C415.534 191.487 415.106 191.317 414.56 191.317C414.194 191.317 413.87 191.396 413.589 191.553C413.312 191.711 413.094 191.941 412.937 192.244C412.783 192.542 412.705 192.902 412.7 193.324ZM424.792 199.16C424.047 199.16 423.371 198.968 422.766 198.585C422.165 198.197 421.688 197.628 421.334 196.878C420.985 196.124 420.81 195.199 420.81 194.104C420.81 192.979 420.991 192.043 421.354 191.298C421.716 190.548 422.197 189.987 422.798 189.616C423.403 189.241 424.066 189.054 424.786 189.054C425.336 189.054 425.794 189.148 426.16 189.335C426.531 189.518 426.829 189.749 427.055 190.026C427.285 190.298 427.46 190.567 427.579 190.831H427.662V185.909H430.379V199H427.694V197.428H427.579C427.452 197.7 427.27 197.971 427.036 198.239C426.806 198.504 426.506 198.723 426.135 198.898C425.768 199.072 425.321 199.16 424.792 199.16ZM425.655 196.993C426.094 196.993 426.465 196.874 426.768 196.635C427.074 196.392 427.309 196.053 427.471 195.619C427.637 195.184 427.72 194.675 427.72 194.091C427.72 193.507 427.639 193 427.477 192.57C427.315 192.139 427.081 191.807 426.774 191.572C426.467 191.338 426.094 191.221 425.655 191.221C425.208 191.221 424.831 191.342 424.524 191.585C424.217 191.828 423.985 192.165 423.827 192.595C423.67 193.026 423.591 193.524 423.591 194.091C423.591 194.662 423.67 195.167 423.827 195.606C423.989 196.04 424.221 196.381 424.524 196.629C424.831 196.871 425.208 196.993 425.655 196.993ZM441.597 199.179C440.643 199.179 439.792 199.015 439.047 198.687C438.305 198.354 437.719 197.898 437.289 197.319C436.863 196.735 436.643 196.062 436.631 195.299H439.417C439.434 195.619 439.539 195.9 439.731 196.143C439.927 196.381 440.187 196.567 440.51 196.699C440.834 196.831 441.199 196.897 441.604 196.897C442.025 196.897 442.398 196.822 442.722 196.673C443.046 196.524 443.3 196.317 443.483 196.053C443.666 195.789 443.758 195.484 443.758 195.139C443.758 194.79 443.66 194.481 443.464 194.212C443.272 193.94 442.995 193.727 442.633 193.573C442.275 193.42 441.849 193.343 441.354 193.343H440.133V191.31H441.354C441.772 191.31 442.14 191.238 442.46 191.093C442.784 190.948 443.035 190.748 443.214 190.492C443.393 190.232 443.483 189.93 443.483 189.585C443.483 189.256 443.404 188.969 443.246 188.722C443.093 188.47 442.876 188.274 442.594 188.134C442.317 187.993 441.993 187.923 441.623 187.923C441.248 187.923 440.905 187.991 440.594 188.127C440.282 188.259 440.033 188.449 439.846 188.696C439.658 188.943 439.558 189.233 439.545 189.565H436.893C436.905 188.811 437.121 188.146 437.538 187.571C437.956 186.996 438.518 186.546 439.226 186.222C439.937 185.894 440.741 185.73 441.635 185.73C442.539 185.73 443.329 185.894 444.007 186.222C444.684 186.55 445.211 186.994 445.586 187.552C445.965 188.106 446.153 188.728 446.148 189.418C446.153 190.151 445.925 190.763 445.464 191.253C445.008 191.743 444.414 192.054 443.681 192.186V192.288C444.644 192.412 445.377 192.746 445.88 193.292C446.387 193.833 446.638 194.511 446.634 195.325C446.638 196.07 446.423 196.733 445.988 197.312C445.558 197.892 444.964 198.348 444.205 198.68C443.447 199.013 442.577 199.179 441.597 199.179Z" fill="white"/>
<path d="M30.1378 86V72.9091H35.3026C36.2912 72.9091 37.1349 73.0859 37.8338 73.4396C38.5369 73.7891 39.0717 74.2855 39.4382 74.929C39.8089 75.5682 39.9943 76.3203 39.9943 77.1854C39.9943 78.0547 39.8068 78.8026 39.4318 79.429C39.0568 80.0511 38.5135 80.5284 37.8018 80.8608C37.0945 81.1932 36.2379 81.3594 35.2322 81.3594H31.7741V79.1349H34.7848C35.3132 79.1349 35.7521 79.0625 36.1016 78.9176C36.451 78.7727 36.7109 78.5554 36.8814 78.2656C37.0561 77.9759 37.1435 77.6158 37.1435 77.1854C37.1435 76.7507 37.0561 76.3842 36.8814 76.0859C36.7109 75.7876 36.4489 75.5618 36.0952 75.4084C35.7457 75.2507 35.3047 75.1719 34.772 75.1719H32.9055V86H30.1378ZM37.2074 80.0426L40.4609 86H37.4055L34.2223 80.0426H37.2074ZM46.177 86.1918C45.1841 86.1918 44.3255 85.9808 43.601 85.5589C42.8809 85.1328 42.3248 84.5405 41.9327 83.782C41.5407 83.0192 41.3446 82.1349 41.3446 81.1293C41.3446 80.1151 41.5407 79.2287 41.9327 78.4702C42.3248 77.7074 42.8809 77.1151 43.601 76.6932C44.3255 76.267 45.1841 76.054 46.177 76.054C47.1699 76.054 48.0265 76.267 48.7466 76.6932C49.4711 77.1151 50.0293 77.7074 50.4213 78.4702C50.8134 79.2287 51.0094 80.1151 51.0094 81.1293C51.0094 82.1349 50.8134 83.0192 50.4213 83.782C50.0293 84.5405 49.4711 85.1328 48.7466 85.5589C48.0265 85.9808 47.1699 86.1918 46.177 86.1918ZM46.1898 84.0824C46.6415 84.0824 47.0186 83.9545 47.3212 83.6989C47.6238 83.4389 47.8517 83.0852 48.0051 82.6378C48.1628 82.1903 48.2417 81.6811 48.2417 81.1101C48.2417 80.5391 48.1628 80.0298 48.0051 79.5824C47.8517 79.1349 47.6238 78.7812 47.3212 78.5213C47.0186 78.2614 46.6415 78.1314 46.1898 78.1314C45.7338 78.1314 45.3503 78.2614 45.0392 78.5213C44.7324 78.7812 44.5002 79.1349 44.3425 79.5824C44.1891 80.0298 44.1124 80.5391 44.1124 81.1101C44.1124 81.6811 44.1891 82.1903 44.3425 82.6378C44.5002 83.0852 44.7324 83.4389 45.0392 83.6989C45.3503 83.9545 45.7338 84.0824 46.1898 84.0824ZM59.0762 81.8196V76.1818H61.7992V86H59.1848V84.2166H59.0826C58.861 84.7919 58.4924 85.2543 57.9767 85.6037C57.4654 85.9531 56.8411 86.1278 56.1039 86.1278C55.4476 86.1278 54.8702 85.9787 54.3716 85.6804C53.873 85.3821 53.4831 84.9581 53.2019 84.4084C52.9249 83.8587 52.7843 83.2003 52.78 82.4332V76.1818H55.503V81.9474C55.5073 82.527 55.6628 82.9851 55.9696 83.3217C56.2765 83.6584 56.6877 83.8267 57.2033 83.8267C57.5314 83.8267 57.8382 83.7521 58.1238 83.603C58.4093 83.4496 58.6394 83.2237 58.8141 82.9254C58.9931 82.6271 59.0804 82.2585 59.0762 81.8196ZM66.7003 80.3239V86H63.9773V76.1818H66.5724V77.9141H66.6875C66.9048 77.343 67.2692 76.8913 67.7805 76.5589C68.2919 76.2223 68.9119 76.054 69.6406 76.054C70.3224 76.054 70.9169 76.2031 71.424 76.5014C71.9311 76.7997 72.3253 77.2259 72.6065 77.7798C72.8878 78.3295 73.0284 78.9858 73.0284 79.7486V86H70.3054V80.2344C70.3097 79.6335 70.1563 79.1648 69.8452 78.8281C69.5341 78.4872 69.1058 78.3168 68.5604 78.3168C68.1939 78.3168 67.87 78.3956 67.5888 78.5533C67.3118 78.7109 67.0945 78.9411 66.9368 79.2436C66.7834 79.5419 66.7045 79.902 66.7003 80.3239ZM78.7924 86.1598C78.0467 86.1598 77.3713 85.968 76.7662 85.5845C76.1653 85.1967 75.688 84.6278 75.3343 83.8778C74.9849 83.1236 74.8102 82.1989 74.8102 81.1037C74.8102 79.9787 74.9913 79.0433 75.3535 78.2976C75.7157 77.5476 76.1973 76.9872 76.7981 76.6165C77.4032 76.2415 78.0659 76.054 78.786 76.054C79.3358 76.054 79.7939 76.1477 80.1603 76.3352C80.5311 76.5185 80.8294 76.7486 81.0552 77.0256C81.2853 77.2983 81.46 77.5668 81.5794 77.831H81.6625V72.9091H84.3791V86H81.6944V84.4276H81.5794C81.4515 84.7003 81.2704 84.9709 81.036 85.2393C80.8059 85.5036 80.5055 85.723 80.1348 85.8977C79.7683 86.0724 79.3208 86.1598 78.7924 86.1598ZM79.6554 83.9929C80.0943 83.9929 80.465 83.8736 80.7676 83.6349C81.0744 83.392 81.3088 83.0533 81.4707 82.6186C81.6369 82.1839 81.72 81.6747 81.72 81.0909C81.72 80.5071 81.639 80 81.4771 79.5696C81.3152 79.1392 81.0808 78.8068 80.774 78.5724C80.4672 78.3381 80.0943 78.2209 79.6554 78.2209C79.2079 78.2209 78.8308 78.3423 78.524 78.5852C78.2172 78.8281 77.9849 79.1648 77.8272 79.5952C77.6696 80.0256 77.5907 80.5241 77.5907 81.0909C77.5907 81.6619 77.6696 82.1669 77.8272 82.6058C77.9892 83.0405 78.2214 83.3814 78.524 83.6286C78.8308 83.8714 79.2079 83.9929 79.6554 83.9929ZM96.4537 72.9091V86H93.6859V75.5362H93.6092L90.6113 77.4155V74.9609L93.8521 72.9091H96.4537Z" fill="white"/>
<path d="M21.6882 161.492H18.8885C18.8374 161.13 18.733 160.808 18.5753 160.527C18.4176 160.241 18.2152 159.999 17.968 159.798C17.7209 159.598 17.4354 159.445 17.1115 159.338C16.7919 159.232 16.4446 159.178 16.0696 159.178C15.392 159.178 14.8018 159.347 14.299 159.683C13.7962 160.016 13.4063 160.501 13.1293 161.141C12.8523 161.776 12.7138 162.547 12.7138 163.455C12.7138 164.388 12.8523 165.172 13.1293 165.807C13.4105 166.442 13.8026 166.921 14.3054 167.245C14.8082 167.569 15.3899 167.731 16.0504 167.731C16.4212 167.731 16.7642 167.682 17.0795 167.584C17.3991 167.486 17.6825 167.343 17.9297 167.156C18.1768 166.964 18.3814 166.732 18.5433 166.459C18.7095 166.186 18.8246 165.875 18.8885 165.526L21.6882 165.538C21.6158 166.139 21.4347 166.719 21.1449 167.277C20.8594 167.831 20.4737 168.327 19.9879 168.766C19.5064 169.201 18.9311 169.546 18.2621 169.802C17.5973 170.053 16.8452 170.179 16.0057 170.179C14.8381 170.179 13.794 169.915 12.8736 169.386C11.9574 168.858 11.233 168.093 10.7003 167.092C10.1719 166.09 9.90767 164.878 9.90767 163.455C9.90767 162.027 10.1761 160.812 10.7131 159.811C11.25 158.81 11.9787 158.047 12.8991 157.523C13.8196 156.994 14.8551 156.73 16.0057 156.73C16.7642 156.73 17.4673 156.837 18.1151 157.05C18.767 157.263 19.3445 157.574 19.8473 157.983C20.3501 158.388 20.7592 158.884 21.0746 159.472C21.3942 160.06 21.5987 160.734 21.6882 161.492ZM28.0579 170.192C27.065 170.192 26.2063 169.981 25.4819 169.559C24.7617 169.133 24.2056 168.54 23.8136 167.782C23.4215 167.019 23.2255 166.135 23.2255 165.129C23.2255 164.115 23.4215 163.229 23.8136 162.47C24.2056 161.707 24.7617 161.115 25.4819 160.693C26.2063 160.267 27.065 160.054 28.0579 160.054C29.0508 160.054 29.9073 160.267 30.6275 160.693C31.3519 161.115 31.9102 161.707 32.3022 162.47C32.6942 163.229 32.8903 164.115 32.8903 165.129C32.8903 166.135 32.6942 167.019 32.3022 167.782C31.9102 168.54 31.3519 169.133 30.6275 169.559C29.9073 169.981 29.0508 170.192 28.0579 170.192ZM28.0707 168.082C28.5224 168.082 28.8995 167.955 29.2021 167.699C29.5046 167.439 29.7326 167.085 29.886 166.638C30.0437 166.19 30.1225 165.681 30.1225 165.11C30.1225 164.539 30.0437 164.03 29.886 163.582C29.7326 163.135 29.5046 162.781 29.2021 162.521C28.8995 162.261 28.5224 162.131 28.0707 162.131C27.6147 162.131 27.2312 162.261 26.9201 162.521C26.6133 162.781 26.381 163.135 26.2234 163.582C26.07 164.03 25.9933 164.539 25.9933 165.11C25.9933 165.681 26.07 166.19 26.2234 166.638C26.381 167.085 26.6133 167.439 26.9201 167.699C27.2312 167.955 27.6147 168.082 28.0707 168.082ZM38.2788 170.16C37.533 170.16 36.8576 169.968 36.2525 169.585C35.6516 169.197 35.1744 168.628 34.8207 167.878C34.4712 167.124 34.2965 166.199 34.2965 165.104C34.2965 163.979 34.4776 163.043 34.8398 162.298C35.2021 161.548 35.6836 160.987 36.2844 160.616C36.8896 160.241 37.5522 160.054 38.2724 160.054C38.8221 160.054 39.2802 160.148 39.6467 160.335C40.0174 160.518 40.3157 160.749 40.5415 161.026C40.7717 161.298 40.9464 161.567 41.0657 161.831H41.1488V156.909H43.8654V170H41.1808V168.428H41.0657C40.9379 168.7 40.7567 168.971 40.5224 169.239C40.2923 169.504 39.9918 169.723 39.6211 169.898C39.2546 170.072 38.8072 170.16 38.2788 170.16ZM39.1417 167.993C39.5806 167.993 39.9513 167.874 40.2539 167.635C40.5607 167.392 40.7951 167.053 40.957 166.619C41.1232 166.184 41.2063 165.675 41.2063 165.091C41.2063 164.507 41.1254 164 40.9634 163.57C40.8015 163.139 40.5671 162.807 40.2603 162.572C39.9535 162.338 39.5806 162.221 39.1417 162.221C38.6942 162.221 38.3171 162.342 38.0103 162.585C37.7035 162.828 37.4712 163.165 37.3136 163.595C37.1559 164.026 37.0771 164.524 37.0771 165.091C37.0771 165.662 37.1559 166.167 37.3136 166.606C37.4755 167.04 37.7077 167.381 38.0103 167.629C38.3171 167.871 38.6942 167.993 39.1417 167.993ZM50.5787 170.192C49.5687 170.192 48.6994 169.987 47.9707 169.578C47.2463 169.165 46.688 168.581 46.296 167.827C45.9039 167.068 45.7079 166.171 45.7079 165.136C45.7079 164.126 45.9039 163.239 46.296 162.477C46.688 161.714 47.2399 161.119 47.9515 160.693C48.6674 160.267 49.5069 160.054 50.47 160.054C51.1177 160.054 51.7207 160.158 52.2789 160.367C52.8414 160.572 53.3315 160.881 53.7491 161.294C54.171 161.707 54.4991 162.227 54.7335 162.854C54.9679 163.476 55.0851 164.205 55.0851 165.04V165.788H46.7946V164.1H52.5218C52.5218 163.708 52.4366 163.361 52.2662 163.058C52.0957 162.756 51.8592 162.519 51.5566 162.349C51.2583 162.174 50.911 162.087 50.5147 162.087C50.1014 162.087 49.7349 162.183 49.4153 162.374C49.1 162.562 48.8528 162.815 48.6738 163.135C48.4949 163.45 48.4032 163.802 48.399 164.19V165.794C48.399 166.28 48.4885 166.7 48.6674 167.053C48.8507 167.407 49.1085 167.68 49.4409 167.871C49.7733 168.063 50.1674 168.159 50.6234 168.159C50.926 168.159 51.2029 168.116 51.4544 168.031C51.7058 167.946 51.921 167.818 52.1 167.648C52.2789 167.477 52.4153 167.268 52.5091 167.021L55.0275 167.188C54.8997 167.793 54.6376 168.321 54.2413 168.773C53.8493 169.22 53.3422 169.57 52.72 169.821C52.1021 170.068 51.3883 170.192 50.5787 170.192ZM65.2452 170V156.909H70.41C71.3986 156.909 72.2424 157.086 72.9412 157.44C73.6444 157.789 74.1792 158.286 74.5456 158.929C74.9164 159.568 75.1017 160.32 75.1017 161.185C75.1017 162.055 74.9142 162.803 74.5392 163.429C74.1642 164.051 73.6209 164.528 72.9093 164.861C72.2019 165.193 71.3453 165.359 70.3397 165.359H66.8816V163.135H69.8922C70.4206 163.135 70.8596 163.062 71.209 162.918C71.5584 162.773 71.8184 162.555 71.9888 162.266C72.1635 161.976 72.2509 161.616 72.2509 161.185C72.2509 160.751 72.1635 160.384 71.9888 160.086C71.8184 159.788 71.5563 159.562 71.2026 159.408C70.8532 159.251 70.4121 159.172 69.8794 159.172H68.013V170H65.2452ZM72.3148 164.043L75.5684 170H72.513L69.3297 164.043H72.3148ZM81.3228 170.192C80.3129 170.192 79.4435 169.987 78.7148 169.578C77.9904 169.165 77.4322 168.581 77.0401 167.827C76.6481 167.068 76.4521 166.171 76.4521 165.136C76.4521 164.126 76.6481 163.239 77.0401 162.477C77.4322 161.714 77.984 161.119 78.6957 160.693C79.4116 160.267 80.2511 160.054 81.2141 160.054C81.8619 160.054 82.4648 160.158 83.0231 160.367C83.5856 160.572 84.0756 160.881 84.4933 161.294C84.9151 161.707 85.2433 162.227 85.4776 162.854C85.712 163.476 85.8292 164.205 85.8292 165.04V165.788H77.5387V164.1H83.266C83.266 163.708 83.1808 163.361 83.0103 163.058C82.8398 162.756 82.6033 162.519 82.3008 162.349C82.0025 162.174 81.6552 162.087 81.2589 162.087C80.8455 162.087 80.479 162.183 80.1594 162.374C79.8441 162.562 79.5969 162.815 79.418 163.135C79.239 163.45 79.1474 163.802 79.1431 164.19V165.794C79.1431 166.28 79.2326 166.7 79.4116 167.053C79.5948 167.407 79.8526 167.68 80.185 167.871C80.5174 168.063 80.9116 168.159 81.3675 168.159C81.6701 168.159 81.9471 168.116 82.1985 168.031C82.4499 167.946 82.6651 167.818 82.8441 167.648C83.0231 167.477 83.1594 167.268 83.2532 167.021L85.7717 167.188C85.6438 167.793 85.3817 168.321 84.9854 168.773C84.5934 169.22 84.0863 169.57 83.4641 169.821C82.8462 170.068 82.1325 170.192 81.3228 170.192ZM90.3292 156.909V170H87.6062V156.909H90.3292ZM95.3102 170.185C94.6838 170.185 94.1255 170.077 93.6355 169.859C93.1454 169.638 92.7576 169.312 92.4721 168.881C92.1909 168.447 92.0502 167.906 92.0502 167.258C92.0502 166.712 92.1504 166.254 92.3507 165.884C92.551 165.513 92.8237 165.214 93.1689 164.989C93.514 164.763 93.9061 164.592 94.345 164.477C94.7882 164.362 95.2527 164.281 95.7385 164.234C96.3095 164.175 96.7697 164.119 97.1191 164.068C97.4686 164.013 97.7221 163.932 97.8798 163.825C98.0375 163.719 98.1163 163.561 98.1163 163.352V163.314C98.1163 162.909 97.9885 162.596 97.7328 162.374C97.4814 162.153 97.1234 162.042 96.6589 162.042C96.1689 162.042 95.7789 162.151 95.4892 162.368C95.1994 162.581 95.0076 162.849 94.9139 163.173L92.3954 162.969C92.5233 162.372 92.7747 161.857 93.1497 161.422C93.5247 160.983 94.0083 160.646 94.6007 160.412C95.1973 160.173 95.8876 160.054 96.6717 160.054C97.2172 160.054 97.7392 160.118 98.2377 160.246C98.7406 160.374 99.1859 160.572 99.5737 160.84C99.9657 161.109 100.275 161.454 100.501 161.876C100.726 162.293 100.839 162.794 100.839 163.378V170H98.2569V168.638H98.1802C98.0225 168.945 97.8116 169.216 97.5474 169.45C97.2832 169.68 96.9657 169.862 96.595 169.994C96.2243 170.121 95.796 170.185 95.3102 170.185ZM96.09 168.306C96.4906 168.306 96.8443 168.227 97.1511 168.07C97.4579 167.908 97.6987 167.69 97.8734 167.418C98.0481 167.145 98.1355 166.836 98.1355 166.491V165.449C98.0502 165.504 97.9331 165.555 97.7839 165.602C97.639 165.645 97.475 165.685 97.2917 165.724C97.1085 165.758 96.9252 165.79 96.742 165.82C96.5588 165.845 96.3926 165.869 96.2434 165.89C95.9238 165.937 95.6447 166.011 95.4061 166.114C95.1674 166.216 94.9821 166.354 94.85 166.529C94.7179 166.7 94.6518 166.913 94.6518 167.168C94.6518 167.539 94.786 167.822 95.0545 168.018C95.3272 168.21 95.6724 168.306 96.09 168.306ZM104.281 173.682C103.936 173.682 103.612 173.654 103.31 173.599C103.012 173.548 102.764 173.482 102.568 173.401L103.182 171.368C103.502 171.466 103.789 171.519 104.045 171.528C104.305 171.536 104.529 171.477 104.716 171.349C104.908 171.221 105.063 171.004 105.183 170.697L105.343 170.281L101.82 160.182H104.684L106.717 167.392H106.819L108.871 160.182H111.754L107.938 171.061C107.754 171.589 107.505 172.05 107.19 172.442C106.879 172.838 106.485 173.143 106.007 173.356C105.53 173.573 104.955 173.682 104.281 173.682Z" fill="black"/>
<path d="M171.639 219.191V216.909H182.391V219.191H178.383V230H175.647V219.191H171.639ZM183.091 230V220.182H185.73V221.895H185.833C186.012 221.286 186.312 220.825 186.734 220.514C187.156 220.199 187.642 220.041 188.191 220.041C188.328 220.041 188.475 220.05 188.632 220.067C188.79 220.084 188.929 220.107 189.048 220.137V222.553C188.92 222.515 188.743 222.481 188.517 222.451C188.292 222.421 188.085 222.406 187.897 222.406C187.497 222.406 187.139 222.494 186.824 222.668C186.512 222.839 186.265 223.077 186.082 223.384C185.903 223.691 185.814 224.045 185.814 224.445V230H183.091ZM194.473 230.192C193.463 230.192 192.594 229.987 191.865 229.578C191.141 229.165 190.583 228.581 190.191 227.827C189.798 227.068 189.602 226.171 189.602 225.136C189.602 224.126 189.798 223.239 190.191 222.477C190.583 221.714 191.134 221.119 191.846 220.693C192.562 220.267 193.401 220.054 194.365 220.054C195.012 220.054 195.615 220.158 196.173 220.367C196.736 220.572 197.226 220.881 197.644 221.294C198.066 221.707 198.394 222.227 198.628 222.854C198.862 223.476 198.98 224.205 198.98 225.04V225.788H190.689V224.1H196.416C196.416 223.708 196.331 223.361 196.161 223.058C195.99 222.756 195.754 222.519 195.451 222.349C195.153 222.174 194.806 222.087 194.409 222.087C193.996 222.087 193.629 222.183 193.31 222.374C192.994 222.562 192.747 222.815 192.568 223.135C192.389 223.45 192.298 223.802 192.294 224.19V225.794C192.294 226.28 192.383 226.7 192.562 227.053C192.745 227.407 193.003 227.68 193.335 227.871C193.668 228.063 194.062 228.159 194.518 228.159C194.82 228.159 195.097 228.116 195.349 228.031C195.6 227.946 195.816 227.818 195.994 227.648C196.173 227.477 196.31 227.268 196.404 227.021L198.922 227.188C198.794 227.793 198.532 228.321 198.136 228.773C197.744 229.22 197.237 229.57 196.615 229.821C195.997 230.068 195.283 230.192 194.473 230.192ZM203.556 230.185C202.93 230.185 202.372 230.077 201.882 229.859C201.392 229.638 201.004 229.312 200.718 228.881C200.437 228.447 200.296 227.906 200.296 227.258C200.296 226.712 200.396 226.254 200.597 225.884C200.797 225.513 201.07 225.214 201.415 224.989C201.76 224.763 202.152 224.592 202.591 224.477C203.034 224.362 203.499 224.281 203.985 224.234C204.556 224.175 205.016 224.119 205.365 224.068C205.715 224.013 205.968 223.932 206.126 223.825C206.284 223.719 206.362 223.561 206.362 223.352V223.314C206.362 222.909 206.235 222.596 205.979 222.374C205.727 222.153 205.369 222.042 204.905 222.042C204.415 222.042 204.025 222.151 203.735 222.368C203.445 222.581 203.254 222.849 203.16 223.173L200.642 222.969C200.769 222.372 201.021 221.857 201.396 221.422C201.771 220.983 202.254 220.646 202.847 220.412C203.443 220.173 204.134 220.054 204.918 220.054C205.463 220.054 205.985 220.118 206.484 220.246C206.987 220.374 207.432 220.572 207.82 220.84C208.212 221.109 208.521 221.454 208.747 221.876C208.972 222.293 209.085 222.794 209.085 223.378V230H206.503V228.638H206.426C206.269 228.945 206.058 229.216 205.794 229.45C205.529 229.68 205.212 229.862 204.841 229.994C204.47 230.121 204.042 230.185 203.556 230.185ZM204.336 228.306C204.737 228.306 205.09 228.227 205.397 228.07C205.704 227.908 205.945 227.69 206.119 227.418C206.294 227.145 206.382 226.836 206.382 226.491V225.449C206.296 225.504 206.179 225.555 206.03 225.602C205.885 225.645 205.721 225.685 205.538 225.724C205.355 225.758 205.171 225.79 204.988 225.82C204.805 225.845 204.639 225.869 204.49 225.89C204.17 225.937 203.891 226.011 203.652 226.114C203.414 226.216 203.228 226.354 203.096 226.529C202.964 226.7 202.898 226.913 202.898 227.168C202.898 227.539 203.032 227.822 203.301 228.018C203.573 228.21 203.919 228.306 204.336 228.306ZM219.367 222.982L216.874 223.135C216.831 222.922 216.74 222.73 216.599 222.56C216.459 222.385 216.273 222.246 216.043 222.144C215.817 222.038 215.547 221.984 215.231 221.984C214.809 221.984 214.454 222.074 214.164 222.253C213.874 222.428 213.729 222.662 213.729 222.956C213.729 223.19 213.823 223.388 214.01 223.55C214.198 223.712 214.52 223.842 214.976 223.94L216.753 224.298C217.707 224.494 218.419 224.81 218.888 225.244C219.356 225.679 219.591 226.25 219.591 226.957C219.591 227.601 219.401 228.165 219.022 228.651C218.647 229.137 218.131 229.516 217.475 229.789C216.823 230.058 216.071 230.192 215.219 230.192C213.919 230.192 212.883 229.921 212.112 229.38C211.345 228.835 210.895 228.093 210.763 227.156L213.442 227.015C213.523 227.411 213.719 227.714 214.03 227.923C214.341 228.127 214.739 228.229 215.225 228.229C215.702 228.229 216.086 228.138 216.376 227.955C216.67 227.767 216.819 227.526 216.823 227.232C216.819 226.985 216.714 226.783 216.51 226.625C216.305 226.463 215.99 226.339 215.564 226.254L213.863 225.915C212.905 225.724 212.191 225.391 211.722 224.918C211.258 224.445 211.025 223.842 211.025 223.109C211.025 222.479 211.196 221.935 211.537 221.479C211.882 221.023 212.366 220.672 212.988 220.425C213.614 220.178 214.347 220.054 215.187 220.054C216.427 220.054 217.403 220.316 218.114 220.84C218.83 221.364 219.248 222.078 219.367 222.982ZM227.602 225.82V220.182H230.325V230H227.71V228.217H227.608C227.386 228.792 227.018 229.254 226.502 229.604C225.991 229.953 225.366 230.128 224.629 230.128C223.973 230.128 223.396 229.979 222.897 229.68C222.398 229.382 222.009 228.958 221.727 228.408C221.45 227.859 221.31 227.2 221.305 226.433V220.182H224.028V225.947C224.033 226.527 224.188 226.985 224.495 227.322C224.802 227.658 225.213 227.827 225.729 227.827C226.057 227.827 226.364 227.752 226.649 227.603C226.935 227.45 227.165 227.224 227.339 226.925C227.518 226.627 227.606 226.259 227.602 225.82ZM232.503 230V220.182H235.143V221.895H235.245C235.424 221.286 235.724 220.825 236.146 220.514C236.568 220.199 237.054 220.041 237.604 220.041C237.74 220.041 237.887 220.05 238.045 220.067C238.202 220.084 238.341 220.107 238.46 220.137V222.553C238.332 222.515 238.155 222.481 237.93 222.451C237.704 222.421 237.497 222.406 237.309 222.406C236.909 222.406 236.551 222.494 236.236 222.668C235.925 222.839 235.677 223.077 235.494 223.384C235.315 223.691 235.226 224.045 235.226 224.445V230H232.503ZM243.885 230.192C242.875 230.192 242.006 229.987 241.277 229.578C240.553 229.165 239.995 228.581 239.603 227.827C239.211 227.068 239.015 226.171 239.015 225.136C239.015 224.126 239.211 223.239 239.603 222.477C239.995 221.714 240.547 221.119 241.258 220.693C241.974 220.267 242.814 220.054 243.777 220.054C244.424 220.054 245.027 220.158 245.586 220.367C246.148 220.572 246.638 220.881 247.056 221.294C247.478 221.707 247.806 222.227 248.04 222.854C248.275 223.476 248.392 224.205 248.392 225.04V225.788H240.101V224.1H245.828C245.828 223.708 245.743 223.361 245.573 223.058C245.402 222.756 245.166 222.519 244.863 222.349C244.565 222.174 244.218 222.087 243.821 222.087C243.408 222.087 243.042 222.183 242.722 222.374C242.407 222.562 242.159 222.815 241.98 223.135C241.801 223.45 241.71 223.802 241.706 224.19V225.794C241.706 226.28 241.795 226.7 241.974 227.053C242.157 227.407 242.415 227.68 242.748 227.871C243.08 228.063 243.474 228.159 243.93 228.159C244.233 228.159 244.51 228.116 244.761 228.031C245.012 227.946 245.228 227.818 245.407 227.648C245.586 227.477 245.722 227.268 245.816 227.021L248.334 227.188C248.206 227.793 247.944 228.321 247.548 228.773C247.156 229.22 246.649 229.57 246.027 229.821C245.409 230.068 244.695 230.192 243.885 230.192ZM254.386 230V216.909H257.154V222.31H262.772V216.909H265.534V230H262.772V224.592H257.154V230H254.386ZM274.061 225.82V220.182H276.784V230H274.169V228.217H274.067C273.845 228.792 273.477 229.254 272.961 229.604C272.45 229.953 271.825 230.128 271.088 230.128C270.432 230.128 269.855 229.979 269.356 229.68C268.857 229.382 268.468 228.958 268.186 228.408C267.909 227.859 267.769 227.2 267.764 226.433V220.182H270.487V225.947C270.492 226.527 270.647 226.985 270.954 227.322C271.261 227.658 271.672 227.827 272.188 227.827C272.516 227.827 272.823 227.752 273.108 227.603C273.394 227.45 273.624 227.224 273.798 226.925C273.977 226.627 274.065 226.259 274.061 225.82ZM281.685 224.324V230H278.962V220.182H281.557V221.914H281.672C281.889 221.343 282.254 220.891 282.765 220.559C283.276 220.222 283.896 220.054 284.625 220.054C285.307 220.054 285.901 220.203 286.408 220.501C286.915 220.8 287.31 221.226 287.591 221.78C287.872 222.33 288.013 222.986 288.013 223.749V230H285.29V224.234C285.294 223.634 285.141 223.165 284.83 222.828C284.518 222.487 284.09 222.317 283.545 222.317C283.178 222.317 282.854 222.396 282.573 222.553C282.296 222.711 282.079 222.941 281.921 223.244C281.768 223.542 281.689 223.902 281.685 224.324ZM295.381 220.182V222.227H289.469V220.182H295.381ZM290.811 217.83H293.534V226.983C293.534 227.234 293.572 227.43 293.649 227.571C293.726 227.707 293.832 227.803 293.969 227.859C294.109 227.914 294.271 227.942 294.454 227.942C294.582 227.942 294.71 227.931 294.838 227.91C294.966 227.884 295.064 227.865 295.132 227.852L295.56 229.879C295.424 229.921 295.232 229.97 294.985 230.026C294.738 230.085 294.437 230.121 294.084 230.134C293.427 230.16 292.852 230.072 292.358 229.872C291.868 229.672 291.486 229.361 291.214 228.939C290.941 228.517 290.807 227.984 290.811 227.341V217.83Z" fill="black"/>
<path d="M376.379 265.909H379.115V275.037C379.115 275.881 378.925 276.614 378.546 277.236C378.171 277.858 377.649 278.337 376.98 278.674C376.311 279.011 375.533 279.179 374.647 279.179C373.859 279.179 373.143 279.04 372.499 278.763C371.86 278.482 371.353 278.056 370.978 277.485C370.603 276.91 370.418 276.187 370.422 275.318H373.177C373.185 275.663 373.256 275.96 373.388 276.207C373.524 276.45 373.71 276.637 373.944 276.769C374.183 276.897 374.464 276.961 374.788 276.961C375.129 276.961 375.416 276.888 375.651 276.744C375.889 276.594 376.07 276.377 376.194 276.092C376.317 275.806 376.379 275.455 376.379 275.037V265.909ZM385.827 279.192C384.817 279.192 383.947 278.987 383.219 278.578C382.494 278.165 381.936 277.581 381.544 276.827C381.152 276.068 380.956 275.171 380.956 274.136C380.956 273.126 381.152 272.239 381.544 271.477C381.936 270.714 382.488 270.119 383.2 269.693C383.915 269.267 384.755 269.054 385.718 269.054C386.366 269.054 386.969 269.158 387.527 269.367C388.089 269.572 388.58 269.881 388.997 270.294C389.419 270.707 389.747 271.227 389.982 271.854C390.216 272.476 390.333 273.205 390.333 274.04V274.788H382.043V273.1H387.77C387.77 272.708 387.685 272.361 387.514 272.058C387.344 271.756 387.107 271.519 386.805 271.349C386.506 271.174 386.159 271.087 385.763 271.087C385.349 271.087 384.983 271.183 384.663 271.374C384.348 271.562 384.101 271.815 383.922 272.135C383.743 272.45 383.651 272.802 383.647 273.19V274.794C383.647 275.28 383.737 275.7 383.915 276.053C384.099 276.407 384.357 276.68 384.689 276.871C385.021 277.063 385.415 277.159 385.871 277.159C386.174 277.159 386.451 277.116 386.702 277.031C386.954 276.946 387.169 276.818 387.348 276.648C387.527 276.477 387.663 276.268 387.757 276.021L390.276 276.188C390.148 276.793 389.886 277.321 389.489 277.773C389.097 278.22 388.59 278.57 387.968 278.821C387.35 279.068 386.636 279.192 385.827 279.192ZM396.546 279.192C395.553 279.192 394.695 278.981 393.97 278.559C393.25 278.133 392.694 277.54 392.302 276.782C391.91 276.019 391.714 275.135 391.714 274.129C391.714 273.115 391.91 272.229 392.302 271.47C392.694 270.707 393.25 270.115 393.97 269.693C394.695 269.267 395.553 269.054 396.546 269.054C397.539 269.054 398.396 269.267 399.116 269.693C399.84 270.115 400.398 270.707 400.79 271.47C401.183 272.229 401.379 273.115 401.379 274.129C401.379 275.135 401.183 276.019 400.79 276.782C400.398 277.54 399.84 278.133 399.116 278.559C398.396 278.981 397.539 279.192 396.546 279.192ZM396.559 277.082C397.011 277.082 397.388 276.955 397.69 276.699C397.993 276.439 398.221 276.085 398.374 275.638C398.532 275.19 398.611 274.681 398.611 274.11C398.611 273.539 398.532 273.03 398.374 272.582C398.221 272.135 397.993 271.781 397.69 271.521C397.388 271.261 397.011 271.131 396.559 271.131C396.103 271.131 395.719 271.261 395.408 271.521C395.102 271.781 394.869 272.135 394.712 272.582C394.558 273.03 394.482 273.539 394.482 274.11C394.482 274.681 394.558 275.19 394.712 275.638C394.869 276.085 395.102 276.439 395.408 276.699C395.719 276.955 396.103 277.082 396.559 277.082ZM403.149 282.682V269.182H405.834V270.831H405.955C406.075 270.567 406.247 270.298 406.473 270.026C406.703 269.749 407.001 269.518 407.368 269.335C407.739 269.148 408.199 269.054 408.749 269.054C409.464 269.054 410.125 269.241 410.73 269.616C411.335 269.987 411.819 270.548 412.181 271.298C412.543 272.043 412.724 272.979 412.724 274.104C412.724 275.199 412.548 276.124 412.194 276.878C411.844 277.628 411.367 278.197 410.762 278.585C410.161 278.968 409.488 279.16 408.742 279.16C408.214 279.16 407.764 279.072 407.393 278.898C407.027 278.723 406.727 278.504 406.492 278.239C406.258 277.971 406.079 277.7 405.955 277.428H405.872V282.682H403.149ZM405.815 274.091C405.815 274.675 405.896 275.184 406.058 275.619C406.219 276.053 406.454 276.392 406.761 276.635C407.067 276.874 407.44 276.993 407.879 276.993C408.322 276.993 408.697 276.871 409.004 276.629C409.311 276.381 409.543 276.04 409.701 275.606C409.863 275.167 409.944 274.662 409.944 274.091C409.944 273.524 409.865 273.026 409.707 272.595C409.55 272.165 409.317 271.828 409.011 271.585C408.704 271.342 408.327 271.221 407.879 271.221C407.436 271.221 407.061 271.338 406.754 271.572C406.452 271.807 406.219 272.139 406.058 272.57C405.896 273 405.815 273.507 405.815 274.091ZM417.339 279.185C416.713 279.185 416.155 279.077 415.665 278.859C415.175 278.638 414.787 278.312 414.501 277.881C414.22 277.447 414.08 276.906 414.08 276.258C414.08 275.712 414.18 275.254 414.38 274.884C414.58 274.513 414.853 274.214 415.198 273.989C415.543 273.763 415.935 273.592 416.374 273.477C416.817 273.362 417.282 273.281 417.768 273.234C418.339 273.175 418.799 273.119 419.148 273.068C419.498 273.013 419.751 272.932 419.909 272.825C420.067 272.719 420.146 272.561 420.146 272.352V272.314C420.146 271.909 420.018 271.596 419.762 271.374C419.511 271.153 419.153 271.042 418.688 271.042C418.198 271.042 417.808 271.151 417.518 271.368C417.229 271.581 417.037 271.849 416.943 272.173L414.425 271.969C414.553 271.372 414.804 270.857 415.179 270.422C415.554 269.983 416.038 269.646 416.63 269.412C417.227 269.173 417.917 269.054 418.701 269.054C419.246 269.054 419.768 269.118 420.267 269.246C420.77 269.374 421.215 269.572 421.603 269.84C421.995 270.109 422.304 270.454 422.53 270.876C422.756 271.293 422.869 271.794 422.869 272.378V279H420.286V277.638H420.21C420.052 277.945 419.841 278.216 419.577 278.45C419.312 278.68 418.995 278.862 418.624 278.994C418.254 279.121 417.825 279.185 417.339 279.185ZM418.119 277.306C418.52 277.306 418.874 277.227 419.18 277.07C419.487 276.908 419.728 276.69 419.903 276.418C420.077 276.145 420.165 275.836 420.165 275.491V274.449C420.08 274.504 419.962 274.555 419.813 274.602C419.668 274.645 419.504 274.685 419.321 274.724C419.138 274.758 418.955 274.79 418.771 274.82C418.588 274.845 418.422 274.869 418.273 274.89C417.953 274.937 417.674 275.011 417.435 275.114C417.197 275.216 417.011 275.354 416.879 275.529C416.747 275.7 416.681 275.913 416.681 276.168C416.681 276.539 416.815 276.822 417.084 277.018C417.357 277.21 417.702 277.306 418.119 277.306ZM424.981 279V269.182H427.621V270.895H427.723C427.902 270.286 428.203 269.825 428.625 269.514C429.047 269.199 429.532 269.041 430.082 269.041C430.218 269.041 430.365 269.05 430.523 269.067C430.681 269.084 430.819 269.107 430.939 269.137V271.553C430.811 271.515 430.634 271.481 430.408 271.451C430.182 271.421 429.975 271.406 429.788 271.406C429.387 271.406 429.029 271.494 428.714 271.668C428.403 271.839 428.156 272.077 427.973 272.384C427.794 272.691 427.704 273.045 427.704 273.445V279H424.981ZM435.507 279.16C434.762 279.16 434.086 278.968 433.481 278.585C432.88 278.197 432.403 277.628 432.049 276.878C431.7 276.124 431.525 275.199 431.525 274.104C431.525 272.979 431.706 272.043 432.068 271.298C432.431 270.548 432.912 269.987 433.513 269.616C434.118 269.241 434.781 269.054 435.501 269.054C436.051 269.054 436.509 269.148 436.875 269.335C437.246 269.518 437.544 269.749 437.77 270.026C438 270.298 438.175 270.567 438.294 270.831H438.377V265.909H441.094V279H438.409V277.428H438.294C438.166 277.7 437.985 277.971 437.751 278.239C437.521 278.504 437.22 278.723 436.85 278.898C436.483 279.072 436.036 279.16 435.507 279.16ZM436.37 276.993C436.809 276.993 437.18 276.874 437.482 276.635C437.789 276.392 438.024 276.053 438.186 275.619C438.352 275.184 438.435 274.675 438.435 274.091C438.435 273.507 438.354 273 438.192 272.57C438.03 272.139 437.796 271.807 437.489 271.572C437.182 271.338 436.809 271.221 436.37 271.221C435.923 271.221 435.546 271.342 435.239 271.585C434.932 271.828 434.7 272.165 434.542 272.595C434.384 273.026 434.306 273.524 434.306 274.091C434.306 274.662 434.384 275.167 434.542 275.606C434.704 276.04 434.936 276.381 435.239 276.629C435.546 276.871 435.923 276.993 436.37 276.993ZM445.014 282.682C444.669 282.682 444.345 282.654 444.042 282.599C443.744 282.548 443.497 282.482 443.301 282.401L443.914 280.368C444.234 280.466 444.522 280.519 444.777 280.528C445.037 280.536 445.261 280.477 445.449 280.349C445.64 280.221 445.796 280.004 445.915 279.697L446.075 279.281L442.553 269.182H445.417L447.449 276.392H447.551L449.603 269.182H452.486L448.67 280.061C448.487 280.589 448.238 281.05 447.922 281.442C447.611 281.838 447.217 282.143 446.74 282.356C446.262 282.573 445.687 282.682 445.014 282.682Z" fill="black"/>
<g filter="url(#filter3_d_2695_737)">
<path d="M424.024 123.877C424.45 124.227 425.081 124.165 425.431 123.739L431.143 116.784C431.494 116.357 431.432 115.727 431.005 115.376C430.578 115.026 429.948 115.087 429.598 115.514L424.52 121.696L418.338 116.619C417.911 116.269 417.281 116.33 416.931 116.757C416.58 117.184 416.642 117.814 417.069 118.165L424.024 123.877ZM289.347 102.782C290.007 103.533 290.007 103.533 290.008 103.532C290.009 103.531 290.01 103.53 290.012 103.529C290.015 103.526 290.02 103.521 290.027 103.515C290.042 103.502 290.063 103.484 290.092 103.458C290.15 103.408 290.237 103.333 290.352 103.234C290.582 103.036 290.924 102.744 291.372 102.367C292.268 101.614 293.586 100.523 295.269 99.1797C298.636 96.4926 303.461 92.7947 309.29 88.7563C320.961 80.6715 336.608 71.2559 352.608 65.8293C368.635 60.3938 384.8 59.031 397.699 66.7195C410.575 74.3946 420.533 91.2956 423.663 123.202L425.654 123.006C422.497 90.8316 412.396 73.152 398.723 65.0016C385.072 56.8645 368.195 58.4312 351.966 63.9353C335.71 69.4483 319.887 78.9823 308.152 87.1123C302.278 91.1812 297.416 94.907 294.022 97.6166C292.324 98.9716 290.993 100.073 290.085 100.836C289.631 101.218 289.283 101.516 289.047 101.718C288.93 101.819 288.84 101.897 288.78 101.949C288.75 101.976 288.727 101.996 288.711 102.009C288.703 102.016 288.698 102.021 288.693 102.025C288.691 102.026 288.69 102.028 288.689 102.029C288.688 102.03 288.687 102.03 289.347 102.782Z" fill="#343434"/>
</g>
<g filter="url(#filter4_d_2695_737)">
<path d="M226.401 78.1332C226.785 78.5307 227.418 78.5422 227.815 78.1588L234.293 71.9109C234.691 71.5275 234.702 70.8944 234.319 70.4969C233.936 70.0994 233.302 70.0879 232.905 70.4713L227.147 76.025L221.593 70.2669C221.21 69.8693 220.577 69.8579 220.179 70.2413C219.782 70.6247 219.77 71.2578 220.154 71.6553L226.401 78.1332ZM118.315 51.7107C118.966 52.4695 118.966 52.4694 118.967 52.4688C118.968 52.4682 118.969 52.4673 118.97 52.466C118.973 52.4633 118.978 52.4593 118.984 52.4538C118.997 52.4429 119.017 52.4262 119.043 52.4041C119.095 52.3599 119.173 52.2936 119.277 52.2064C119.484 52.0321 119.793 51.7743 120.196 51.4426C121.003 50.7791 122.187 49.82 123.696 48.6412C126.712 46.2832 131.021 43.048 136.185 39.5423C146.526 32.5217 160.238 24.4564 173.84 20.1529C187.475 15.8388 200.718 15.387 210.418 23.1523C220.14 30.9355 226.667 47.2554 226.121 77.4209L228.121 77.4571C228.669 47.1221 222.142 29.9757 211.668 21.591C201.172 13.1884 187.077 13.8671 173.236 18.2461C159.363 22.6357 145.463 30.8259 135.062 37.8876C129.854 41.4232 125.508 44.6858 122.464 47.0654C120.941 48.2554 119.744 49.225 118.925 49.898C118.516 50.2345 118.202 50.497 117.989 50.6758C117.883 50.7652 117.802 50.8337 117.748 50.8801C117.72 50.9033 117.7 50.921 117.685 50.933C117.678 50.939 117.673 50.9436 117.669 50.9468C117.668 50.9484 117.666 50.9496 117.665 50.9504C117.664 50.9514 117.663 50.9519 118.315 51.7107Z" fill="#343434"/>
</g>
<defs>
<filter id="filter0_d_2695_737" x="0" y="19" width="128" height="128" filterUnits="userSpaceOnUse" color-interpolation-filters="sRGB">
<feFlood flood-opacity="0" result="BackgroundImageFix"/>
<feColorMatrix in="SourceAlpha" type="matrix" values="0 0 0 0 0 0 0 0 0 0 0 0 0 0 0 0 0 0 127 0" result="hardAlpha"/>
<feOffset dy="4"/>
<feGaussianBlur stdDeviation="2"/>
<feComposite in2="hardAlpha" operator="out"/>
<feColorMatrix type="matrix" values="0 0 0 0 0 0 0 0 0 0 0 0 0 0 0 0 0 0 0.25 0"/>
<feBlend mode="normal" in2="BackgroundImageFix" result="effect1_dropShadow_2695_737"/>
<feBlend mode="normal" in="SourceGraphic" in2="effect1_dropShadow_2695_737" result="shape"/>
</filter>
<filter id="filter1_d_2695_737" x="173" y="82" width="128" height="128" filterUnits="userSpaceOnUse" color-interpolation-filters="sRGB">
<feFlood flood-opacity="0" result="BackgroundImageFix"/>
<feColorMatrix in="SourceAlpha" type="matrix" values="0 0 0 0 0 0 0 0 0 0 0 0 0 0 0 0 0 0 127 0" result="hardAlpha"/>
<feOffset dy="4"/>
<feGaussianBlur stdDeviation="2"/>
<feComposite in2="hardAlpha" operator="out"/>
<feColorMatrix type="matrix" values="0 0 0 0 0 0 0 0 0 0 0 0 0 0 0 0 0 0 0.25 0"/>
<feBlend mode="normal" in2="BackgroundImageFix" result="effect1_dropShadow_2695_737"/>
<feBlend mode="normal" in="SourceGraphic" in2="effect1_dropShadow_2695_737" result="shape"/>
</filter>
<filter id="filter2_d_2695_737" x="347" y="132" width="128" height="128" filterUnits="userSpaceOnUse" color-interpolation-filters="sRGB">
<feFlood flood-opacity="0" result="BackgroundImageFix"/>
<feColorMatrix in="SourceAlpha" type="matrix" values="0 0 0 0 0 0 0 0 0 0 0 0 0 0 0 0 0 0 127 0" result="hardAlpha"/>
<feOffset dy="4"/>
<feGaussianBlur stdDeviation="2"/>
<feComposite in2="hardAlpha" operator="out"/>
<feColorMatrix type="matrix" values="0 0 0 0 0 0 0 0 0 0 0 0 0 0 0 0 0 0 0.25 0"/>
<feBlend mode="normal" in2="BackgroundImageFix" result="effect1_dropShadow_2695_737"/>
<feBlend mode="normal" in="SourceGraphic" in2="effect1_dropShadow_2695_737" result="shape"/>
</filter>
<filter id="filter3_d_2695_737" x="284.688" y="59.3516" width="150.682" height="72.7539" filterUnits="userSpaceOnUse" color-interpolation-filters="sRGB">
<feFlood flood-opacity="0" result="BackgroundImageFix"/>
<feColorMatrix in="SourceAlpha" type="matrix" values="0 0 0 0 0 0 0 0 0 0 0 0 0 0 0 0 0 0 127 0" result="hardAlpha"/>
<feOffset dy="4"/>
<feGaussianBlur stdDeviation="2"/>
<feComposite in2="hardAlpha" operator="out"/>
<feColorMatrix type="matrix" values="0 0 0 0 0 0 0 0 0 0 0 0 0 0 0 0 0 0 0.25 0"/>
<feBlend mode="normal" in2="BackgroundImageFix" result="effect1_dropShadow_2695_737"/>
<feBlend mode="normal" in="SourceGraphic" in2="effect1_dropShadow_2695_737" result="shape"/>
</filter>
<filter id="filter4_d_2695_737" x="113.665" y="15.0742" width="124.935" height="71.3633" filterUnits="userSpaceOnUse" color-interpolation-filters="sRGB">
<feFlood flood-opacity="0" result="BackgroundImageFix"/>
<feColorMatrix in="SourceAlpha" type="matrix" values="0 0 0 0 0 0 0 0 0 0 0 0 0 0 0 0 0 0 127 0" result="hardAlpha"/>
<feOffset dy="4"/>
<feGaussianBlur stdDeviation="2"/>
<feComposite in2="hardAlpha" operator="out"/>
<feColorMatrix type="matrix" values="0 0 0 0 0 0 0 0 0 0 0 0 0 0 0 0 0 0 0.25 0"/>
<feBlend mode="normal" in2="BackgroundImageFix" result="effect1_dropShadow_2695_737"/>
<feBlend mode="normal" in="SourceGraphic" in2="effect1_dropShadow_2695_737" result="shape"/>
</filter>
</defs>
</svg>
